<?xml version="1.0" standalone="no"?>
<!DOCTYPE svg PUBLIC "-//W3C//DTD SVG 20010904//EN"
 "http://www.w3.org/TR/2001/REC-SVG-20010904/DTD/svg10.dtd">
<svg version="1.0" xmlns="http://www.w3.org/2000/svg"
 width="200.000000pt" height="200.000000pt" viewBox="0 0 200.000000 200.000000"
 preserveAspectRatio="xMidYMid meet">

<g transform="translate(0.000000,200.000000) scale(0.100000,-0.100000)"
fill="#000000" stroke="none">
<path d="M640 1202 c-26 -2 -48 -16 -87 -55 -29 -28 -53 -56 -53 -62 0 -6 20
-31 45 -55 25 -24 45 -49 45 -56 0 -16 24 -24 76 -24 76 0 84 9 84 95 0 40 -3
76 -8 78 -4 3 -5 -30 -3 -74 l3 -79 -72 0 -72 0 54 49 c59 54 85 109 67 143
-5 10 -7 24 -3 30 5 7 2 9 -8 5 -9 -3 -19 -2 -24 1 -5 4 -25 6 -44 4z m40 -21
c0 -5 -5 -11 -11 -13 -7 -2 -5 -9 5 -17 14 -12 16 -11 16 5 0 13 3 15 11 7 23
-23 1 -77 -51 -128 l-50 -49 -45 44 c-25 24 -45 49 -45 56 0 6 22 32 50 58 39
37 56 46 85 46 19 0 35 -4 35 -9z"/>
<path d="M605 1100 c-9 -28 -15 -54 -12 -56 3 -3 13 18 22 46 9 28 15 54 12
56 -3 3 -13 -18 -22 -46z"/>
<path d="M550 1090 c0 -23 25 -27 33 -6 7 16 -1 26 -20 26 -7 0 -13 -9 -13
-20z"/>
<path d="M634 1099 c-8 -14 11 -33 25 -25 16 10 13 36 -3 36 -8 0 -18 -5 -22
-11z m26 -9 c0 -5 -2 -10 -4 -10 -3 0 -8 5 -11 10 -3 6 -1 10 4 10 6 0 11 -4
11 -10z"/>
<path d="M808 1189 c-11 -6 -18 -22 -18 -40 0 -25 6 -33 35 -45 19 -8 35 -21
35 -29 0 -18 -14 -19 -40 -3 -28 18 -48 -3 -25 -26 34 -34 105 -11 105 34 0
24 -26 50 -50 50 -10 0 -22 5 -26 11 -10 16 18 30 34 17 9 -8 16 -8 25 1 9 10
8 15 -7 27 -23 16 -44 17 -68 3z"/>
<path d="M920 1115 c0 -69 3 -85 15 -85 8 0 15 7 15 15 0 19 5 19 36 -2 22
-14 27 -14 35 -2 6 10 2 19 -14 31 -22 17 -22 17 -2 32 27 20 7 43 -23 27 -30
-16 -32 -15 -32 29 0 29 -4 40 -15 40 -12 0 -15 -16 -15 -85z"/>
<path d="M1050 1185 c0 -8 7 -15 15 -15 8 0 15 7 15 15 0 8 -7 15 -15 15 -8 0
-15 -7 -15 -15z"/>
<path d="M1190 1170 c0 -27 -3 -30 -24 -24 -17 4 -31 -1 -45 -15 -44 -44 -17
-93 53 -97 l46 -3 0 85 c0 68 -3 84 -15 84 -10 0 -15 -10 -15 -30z m-10 -80
c0 -13 -7 -20 -20 -20 -19 0 -27 20 -13 33 13 14 33 6 33 -13z"/>
<path d="M1242 1118 c3 -70 6 -83 21 -86 10 -2 17 3 17 12 0 20 9 20 32 -1 15
-13 21 -14 31 -4 9 10 7 16 -10 30 -20 17 -20 19 -5 34 13 13 14 20 4 29 -9 9
-15 9 -24 0 -21 -21 -28 -13 -28 28 0 34 -3 40 -20 40 -20 0 -21 -5 -18 -82z"/>
<path d="M1050 1091 c0 -48 3 -61 15 -61 13 0 15 11 13 57 -4 81 -28 85 -28 4z"/>
<path d="M1379 1132 c-24 -17 -25 -64 -1 -85 9 -8 34 -15 55 -15 l37 0 0 57 0
57 -36 0 c-19 0 -44 -6 -55 -14z m59 -39 c5 -17 -26 -29 -40 -15 -6 6 -7 15
-3 22 9 14 37 9 43 -7z"/>
</g>
</svg>
